<svg xmlns="http://www.w3.org/2000/svg" width="69.167" height="86.459" viewBox="0 0 69.167 86.459">
  <path id="pause" d="M147.426,182.459H130.188A2.174,2.174,0,0,1,128,180.3V98.161A2.174,2.174,0,0,1,130.188,96h17.238a2.174,2.174,0,0,1,2.189,2.161V180.3A2.174,2.174,0,0,1,147.426,182.459Zm47.553,0H177.741a2.174,2.174,0,0,1-2.188-2.161V98.161A2.174,2.174,0,0,1,177.741,96h17.238a2.174,2.174,0,0,1,2.188,2.161V180.3A2.174,2.174,0,0,1,194.979,182.459Z" transform="translate(-128 -96)" fill="#ffb74d"/>
</svg>
